<?xml version="1.0" encoding="UTF-8"?>
<svg width="512" height="512" viewBox="0 0 512 512" fill="none" xmlns="http://www.w3.org/2000/svg">
  <rect width="512" height="512" rx="100" fill="#0073B7"/>
  <path d="M256 96C196.8 96 148.8 144 148.8 203.2C148.8 262.4 196.8 310.4 256 310.4C315.2 310.4 363.2 262.4 363.2 203.2C363.2 144 315.2 96 256 96Z" fill="#FFD700"/>
  <path d="M256 352L128 416H384L256 352Z" fill="#8B4513"/>
  <path d="M148.8 416V352C148.8 323.2 177.6 300.8 206.4 300.8H305.6C334.4 300.8 363.2 323.2 363.2 352V416" stroke="#8B4513" stroke-width="16"/>
  <path d="M256 160L275.2 198.4H316.8L283.2 224L297.6 265.6L256 240L214.4 265.6L228.8 224L195.2 198.4H236.8L256 160Z" fill="#8B4513"/>
</svg>